<?xml version="1.0" encoding="UTF-8" standalone="no"?>
<svg
   xmlns:dc="http://purl.org/dc/elements/1.1/"
   xmlns:cc="http://creativecommons.org/ns#"
   xmlns:rdf="http://www.w3.org/1999/02/22-rdf-syntax-ns#"
   xmlns:svg="http://www.w3.org/2000/svg"
   xmlns="http://www.w3.org/2000/svg"
   xmlns:sodipodi="http://sodipodi.sourceforge.net/DTD/sodipodi-0.dtd"
   xmlns:inkscape="http://www.inkscape.org/namespaces/inkscape"
   sodipodi:docname="circle.svg"
   inkscape:version="1.0 (4035a4fb49, 2020-05-01)"
   inkscape:export-ydpi="650.23999"
   inkscape:export-xdpi="650.23999"
   inkscape:export-filename="/ocean/pacific/University/2020/IFB398/overdrive/src/Resources/circle.png"
   id="svg8"
   version="1.1"
   viewBox="0 0 10 10"
   height="10mm"
   width="10mm">
  <defs
     id="defs2" />
  <sodipodi:namedview
     inkscape:window-maximized="1"
     inkscape:window-y="27"
     inkscape:window-x="0"
     inkscape:window-height="1016"
     inkscape:window-width="1920"
     showgrid="false"
     inkscape:document-rotation="0"
     inkscape:current-layer="layer1"
     inkscape:document-units="mm"
     inkscape:cy="21.292978"
     inkscape:cx="22.385146"
     inkscape:zoom="15.839192"
     inkscape:pageshadow="2"
     inkscape:pageopacity="0.0"
     borderopacity="1.0"
     bordercolor="#666666"
     pagecolor="#ffffff"
     id="base" />
  <metadata
     id="metadata5">
    <rdf:RDF>
      <cc:Work
         rdf:about="">
        <dc:format>image/svg+xml</dc:format>
        <dc:type
           rdf:resource="http://purl.org/dc/dcmitype/StillImage" />
        <dc:title></dc:title>
      </cc:Work>
    </rdf:RDF>
  </metadata>
  <g
     id="layer1"
     inkscape:groupmode="layer"
     inkscape:label="Layer 1">
    <path
       transform="scale(0.26458333)"
       d="M 18.898438 3.7792969 A 15.11811 15.11811 0 0 0 3.7792969 18.898438 A 15.11811 15.11811 0 0 0 18.898438 34.015625 A 15.11811 15.11811 0 0 0 34.015625 18.898438 A 15.11811 15.11811 0 0 0 18.898438 3.7792969 z M 18.898438 5.6699219 A 13.228346 13.228346 0 0 1 32.126953 18.898438 A 13.228346 13.228346 0 0 1 18.898438 32.126953 A 13.228346 13.228346 0 0 1 5.6699219 18.898438 A 13.228346 13.228346 0 0 1 18.898438 5.6699219 z "
       style="fill:#000000;stroke-width:0.684911;stroke-linejoin:round"
       id="path20" />
  </g>
</svg>
