<?xml version="1.0" encoding="UTF-8" standalone="no"?>
<svg
   xmlns:dc="http://purl.org/dc/elements/1.1/"
   xmlns:cc="http://creativecommons.org/ns#"
   xmlns:rdf="http://www.w3.org/1999/02/22-rdf-syntax-ns#"
   xmlns:svg="http://www.w3.org/2000/svg"
   xmlns="http://www.w3.org/2000/svg"
   xmlns:sodipodi="http://sodipodi.sourceforge.net/DTD/sodipodi-0.dtd"
   xmlns:inkscape="http://www.inkscape.org/namespaces/inkscape"
   inkscape:export-ydpi="650.23999"
   inkscape:export-xdpi="650.23999"
   inkscape:export-filename="/ocean/pacific/University/2020/IFB398/overdrive/src/Resources/speech.png"
   sodipodi:docname="speech.svg"
   inkscape:version="1.0 (4035a4fb49, 2020-05-01)"
   id="svg8"
   version="1.1"
   viewBox="0 0 10 10"
   height="10mm"
   width="10mm">
  <defs
     id="defs2" />
  <sodipodi:namedview
     inkscape:window-maximized="1"
     inkscape:window-y="27"
     inkscape:window-x="0"
     inkscape:window-height="1016"
     inkscape:window-width="1920"
     showgrid="false"
     inkscape:document-rotation="0"
     inkscape:current-layer="layer1"
     inkscape:document-units="mm"
     inkscape:cy="20.402781"
     inkscape:cx="20.633017"
     inkscape:zoom="15.839192"
     inkscape:pageshadow="2"
     inkscape:pageopacity="0.0"
     borderopacity="1.0"
     bordercolor="#666666"
     pagecolor="#ffffff"
     id="base" />
  <metadata
     id="metadata5">
    <rdf:RDF>
      <cc:Work
         rdf:about="">
        <dc:format>image/svg+xml</dc:format>
        <dc:type
           rdf:resource="http://purl.org/dc/dcmitype/StillImage" />
        <dc:title></dc:title>
      </cc:Work>
    </rdf:RDF>
  </metadata>
  <g
     id="layer1"
     inkscape:groupmode="layer"
     inkscape:label="Layer 1">
    <path
       transform="scale(0.26458333)"
       d="M 5.6699219 4.9140625 C 3.5760636 4.9140625 1.890625 6.5995011 1.890625 8.6933594 L 1.890625 23.810547 C 1.890625 25.220338 2.6623718 26.43225 3.8007812 27.082031 L 3.8085938 27.701172 L 3.8789062 32.978516 L 8.4140625 30.279297 L 12.931641 27.589844 L 32.126953 27.589844 C 34.220811 27.589844 35.90625 25.904405 35.90625 23.810547 L 35.90625 8.6933594 C 35.90625 6.5995011 34.220811 4.9140625 32.126953 4.9140625 L 5.6699219 4.9140625 z M 7.1386719 6.8027344 L 30.65625 6.8027344 C 32.517458 6.8027344 34.015625 8.3009022 34.015625 10.162109 L 34.015625 22.341797 C 34.015625 24.203004 32.517458 25.701172 30.65625 25.701172 L 7.1386719 25.701172 C 5.2774643 25.701172 3.7792969 24.203004 3.7792969 22.341797 L 3.7792969 10.162109 C 3.7792969 8.3009022 5.2774643 6.8027344 7.1386719 6.8027344 z "
       style="fill:#000000;stroke-width:1.09544"
       id="rect18" />
    <rect
       rx="0.3527045"
       y="2.5"
       x="1.5"
       height="0.60000002"
       width="7"
       id="rect48"
       style="fill:#000000;stroke-width:0.291788" />
    <rect
       style="fill:#000000;stroke-width:0.291788"
       id="rect48-6"
       width="7"
       height="0.60000002"
       x="1.5"
       y="4"
       rx="0.3527045" />
    <rect
       rx="0.3527045"
       y="5.5"
       x="1.5"
       height="0.60000002"
       width="7"
       id="rect48-6-7"
       style="fill:#000000;stroke-width:0.291788" />
  </g>
</svg>
